<svg width="901" height="798" viewBox="0 0 901 798" fill='var(--accent)' xmlns="http://www.w3.org/2000/svg" class="svg-icon">
    <path d="M31.5 777.5L1 789.5V1.5L39 12.5L61.5 18.5L85.5 23L105.5 26.5L134 28H161L198
 30L230.5 37.5L255.5 47L278.5 59.5L311 72.5L332 78H351.5L368 75.5L387.5 69.5L410.5 59.5L430
 48.5L461.5 31L481 20.5L508 8L524.5 3.5H538.5L556.5 6L583.5 20.5L612.5 45L632.5 61.5L654.5 76.5L668.5 81.5L679 83.5H685L692 81.5L703.5 78L725.5 66L747.5 49L768 33.5L795.5 17L818.5 10.5L843.5 9L867.5 12.5L886 17L900 21V796.5L871 791.5L814.5 782L764.5 771.5L706.5 752.5L662 737.5L592 714L527 700.5L475 694.5L434 689H398H356.5L328.5 691.5L302 694.5L264.5 703.5L230.5 711.5L180 726.5L117 747.5L70.5 763.5L31.5 777.5Z" fill='var(--accent)' stroke="#D9D9D9"/>
</svg>