<svg width="3202" height="1202" viewBox="0 0 3202 1202" fill="none" xmlns="http://www.w3.org/2000/svg">
<path d="M109.565 1172.32L1 1190.43V1L136.261 17.6038L216.35 26.6604L301.779 33.4528L372.969 38.7359L474.415 41H570.522L702.224 44.0189L817.908 55.3396L906.895 69.6792L988.764 88.5472L1104.45 108.17L1179.2 116.472H1248.61L1307.34 112.698L1376.75 103.642L1458.62 88.5472L1528.03 71.9434L1640.15 45.5283L1709.57 29.6792L1805.67 10.8113L1864.4 4.01887H1914.24L1978.31 7.79245L2074.41 29.6792L2177.64 66.6604L2248.83 91.566L2327.14 114.208L2376.97 121.755L2414.35 124.774H2435.71L2460.62 121.755L2501.56 116.472L2579.87 98.3585L2658.17 72.6981L2731.14 49.3019L2829.03 24.3962L2910.9 14.5849L2999.89 12.3208L3085.32 17.6038L3151.17 24.3962L3201 30.434V1201L3097.77 1193.45L2896.66 1179.11L2718.69 1163.26L2512.23 1134.58L2353.84 1111.94L2104.67 1076.47L1873.3 1056.09L1688.21 1047.04L1542.27 1038.74H1414.13H1266.41L1166.74 1042.51L1072.41 1047.04L938.931 1060.62L817.908 1072.7L638.152 1095.34L413.903 1127.04L248.386 1151.19L109.565 1172.32Z" fill="#D9D9D9" stroke="#D9D9D9"/>
</svg>
