<svg width="1302" height="802" viewBox="0 0 1302 802" fill='var(--accent)' xmlns="http://www.w3.org/2000/svg" class="svg-icon">
<path d="M45.1046 781.881L1 793.956V1L55.9499 12.0692L88.4861 18.1069L123.191 22.6352L152.112 26.1572L193.325 27.6667H232.368L285.872 29.6792L332.869 37.2264L369.02 46.7862L402.279 59.3648L449.276 72.4465L479.643 77.9811H507.841L531.701 75.4654L559.899 69.4277L593.158 59.3648L621.356 48.2956L666.907 30.6855L695.105 20.1195L734.148 7.54088L758.008 3.01258H778.253L804.281 5.5283L843.325 20.1195L885.26 44.7736L914.181 61.3774L945.994 76.4717L966.239 81.5032L981.423 83.5157H990.099L1000.22 81.5032L1016.85 77.9811L1048.66 65.9057L1080.48 48.7987L1110.12 33.2013L1149.89 16.5975L1183.15 10.0566L1219.3 8.54717L1254 12.0692L1280.76 16.5975L1301 20.6226V801L1259.06 795.969L1177.36 786.409L1105.06 775.843L1021.19 756.723L956.84 741.629L855.616 717.981L761.623 704.396L686.428 698.359L627.14 692.824H575.082H515.071L474.582 695.34L436.261 698.359L382.034 707.415L332.869 715.465L259.843 730.56L168.742 751.692L101.501 767.792L45.1046 781.881Z" fill="#D9D9D9" stroke="#D9D9D9"/>
</svg>
