<svg width="3502" height="1802" viewBox="0 0 3502 1802" fill="none" xmlns="http://www.w3.org/2000/svg">
<path d="M119.743 1757.98L1 1785.15V1L148.942 25.9057L236.539 39.4906L329.977 49.6792L407.841 57.6038L518.798 61H623.914L767.963 65.5283L894.493 82.5094L991.823 104.019L1081.37 132.321L1207.9 161.755L1289.65 174.208H1365.57L1429.81 168.547L1505.73 154.962L1595.27 132.321L1671.19 107.415L1793.83 67.7924L1869.74 44.0189L1974.86 15.717L2039.1 5.5283H2093.6L2163.68 11.1887L2268.8 44.0189L2381.7 99.4906L2459.57 136.849L2545.22 170.811L2599.72 182.132L2640.6 186.66H2663.96L2691.21 182.132L2735.98 174.208L2821.63 147.038L2907.28 108.547L2987.1 73.4528L3094.16 36.0943L3183.7 21.3774L3281.03 17.9811L3374.47 25.9057L3446.5 36.0943L3501 45.1509V1801L3388.1 1789.68L3168.13 1768.17L2973.47 1744.4L2747.66 1701.38L2574.42 1667.42L2301.89 1614.21L2048.83 1583.64L1846.38 1570.06L1686.76 1557.6H1546.61H1385.04L1276.03 1563.26L1172.86 1570.06L1026.86 1590.43L894.493 1608.55L697.885 1642.51L452.613 1690.06L271.578 1726.28L119.743 1757.98Z" fill="#D9D9D9" stroke="#D9D9D9"/>
</svg>
