<svg width="4002" height="3502" viewBox="0 0 4002 3502" fill="none" xmlns="http://www.w3.org/2000/svg">
<path d="M136.706 3417.35L1 3470.18V1L170.077 49.4277L270.188 75.8428L376.973 95.6541L465.961 111.063L592.769 117.667H712.902L877.53 126.472L1022.13 159.491L1133.37 201.314L1235.71 256.346L1380.31 313.579L1473.75 337.792H1560.51L1633.93 326.786L1720.69 300.371L1823.02 256.346L1909.79 207.918L2049.94 130.874L2136.71 84.6478L2256.84 29.6164L2330.25 9.80503H2392.55L2472.64 20.8113L2592.77 84.6478L2721.8 192.509L2810.79 265.151L2908.68 331.189L2970.97 353.201L3017.69 362.006H3044.38L3075.53 353.201L3126.7 337.792L3224.58 284.962L3322.47 210.119L3413.68 141.881L3536.04 69.239L3638.38 40.6226L3749.61 34.0189L3856.4 49.4277L3938.71 69.239L4001 86.8491V3501L3871.97 3478.99L3620.58 3437.16L3398.11 3390.94L3140.04 3307.29L2942.05 3241.25L2630.59 3137.79L2341.38 3078.36L2110.01 3051.94L1927.59 3027.73H1767.41H1582.76L1458.17 3038.74L1340.27 3051.94L1173.41 3091.57L1022.13 3126.79L797.441 3192.82L517.129 3285.28L310.233 3355.72L136.706 3417.35Z" fill="#D9D9D9" stroke="#D9D9D9"/>
</svg>
