<svg width="901" height="958" viewBox="0 0 901 958" fill="none" xmlns="http://www.w3.org/2000/svg">
<path d="M24.5 8L1 1V833L10.5 832L33 830.5L61 827L79.5 823.5L105.5 815.5L122 808.5L139.5 800L152 793.5L164.5 787.5L176.5 782L187.5 777L207.5 772L217.5 771H227L239 773L250 776.5L271 786L289.5 795.5L306.5 804.5L328.5 813.5L340 816L355.5 817.5L366 817L376.5 815.5L396.5 812.5L417 810L429 809H436.5L446 810L457 812.5L470 817L494 828.5L514.5 839.5L530 846.5L544.5 850.5L563.5 853L578 849L590.5 843.5L606.5 835.5L633.5 817L651.5 805L666.5 798L685.5 792L698.5 790L721 793.5L743 801.5L762 813L782.5 827L824.5 868L856.5 902.5L874.5 925L900.5 956V21L891.5 18.5L882 16L872.5 13.5L862.5 11.5L853.5 10L838 9L826.5 10L814.5 11.5L803 14.5L795 17.5L790 20L783.5 23.5L770.5 31.5L757 41.5L739.5 54.5L727 64L712 73.5L702 78L694.5 81L687 83L681 83.5H675.5L670.5 82.5L664.5 80.5L658.5 78L650 73.5L642.5 68.5L631.5 60.5L610.5 42.5L598 32L585.5 22L577 16L567 10L552.5 5L542.5 3.5L534 3L525 3.5L510.5 7L498 11.5L487 16.5L472 24.5L454 35L428 50L415.5 56.5L400.5 64L382.5 71.5L364.5 76.5L347 78.5L336 77.5L325 76L312.5 72.5L296 66.5L271 55L249.5 45L229 37L210 32.5L195.5 30L182.5 29H177.5L162.5 28.5L137 28L114 27L98.5 25L80 22L65.5 18.5L56.5 16.5L37.5 12L24.5 8Z" fill="#FF0F0F" stroke="#FC0404"/>
</svg>
