<svg width="2502" height="3802" viewBox="0 0 2502 3802" fill="none" xmlns="http://www.w3.org/2000/svg">
<path d="M85.8165 3710.18L1 3767.54V1L106.673 53.5786L169.242 82.2579L235.983 103.767L291.601 120.497L370.855 127.667H445.939L548.831 137.226L639.209 173.075L708.731 218.484L772.691 278.233L863.069 340.371L921.467 366.66H975.694L1021.58 354.711L1075.81 326.031L1139.77 278.233L1193.99 225.654L1281.59 142.006L1335.82 91.8176L1410.9 32.0692L1456.78 10.5597H1495.72L1545.77 22.5094L1620.86 91.8176L1701.5 208.925L1757.12 287.792L1818.3 359.491L1857.23 383.39L1886.43 392.95H1903.11L1922.58 383.39L1954.56 366.66L2015.74 309.302L2076.92 228.044L2133.93 153.956L2210.4 75.0881L2274.36 44.0189L2343.88 36.8491L2410.62 53.5786L2462.07 75.0881L2501 94.2075V3801L2420.35 3777.1L2263.24 3731.69L2124.19 3681.5L1962.9 3590.69L1839.15 3518.99L1644.49 3406.66L1463.74 3342.13L1319.13 3313.45L1205.12 3287.16H1105H989.599L911.734 3299.11L838.041 3313.45L733.759 3356.47L639.209 3394.71L498.775 3466.41L323.581 3566.79L194.27 3643.26L85.8165 3710.18Z" fill="#D9D9D9" stroke="#D9D9D9"/>
</svg>
