<svg width="2502" height="2803" viewBox="0 0 2502 2803" fill="none" xmlns="http://www.w3.org/2000/svg">
<path d="M66.3141 21.5236L1 1V2440.37L27.4036 2437.44L89.9383 2433.04L167.759 2422.78L219.177 2412.52L291.439 2389.06L337.298 2368.54L385.936 2343.62L420.678 2324.56L455.419 2306.97L488.771 2290.84L519.344 2276.18L574.93 2261.52L602.723 2258.59H629.127L662.479 2264.46L693.051 2274.72L751.417 2302.57L802.834 2330.42L850.083 2356.81L911.228 2383.2L943.19 2390.53L986.27 2394.93L1015.45 2393.46L1044.64 2389.06L1100.22 2380.27L1157.2 2372.94L1190.55 2370.01H1211.39L1237.8 2372.94L1268.37 2380.27L1304.5 2393.46L1371.21 2427.18L1428.18 2459.43L1471.26 2479.95L1511.56 2491.68L1564.37 2499.01L1604.67 2487.28L1639.41 2471.16L1683.88 2447.7L1758.92 2393.46L1808.95 2358.28L1850.64 2337.75L1903.45 2320.16L1939.58 2314.3L2002.11 2324.56L2063.26 2348.02L2116.06 2381.73L2173.04 2422.78L2289.77 2542.99L2378.71 2644.14L2428.74 2710.11L2501 2801V59.6387L2475.99 52.3089L2449.58 44.9791L2423.18 37.6492L2395.39 31.7853L2370.37 27.3874L2327.29 24.4555L2295.33 27.3874L2261.98 31.7853L2230.02 40.5812L2207.78 49.377L2193.89 56.7068L2175.82 66.9686L2139.69 90.4241L2102.17 119.743L2053.53 157.859L2018.79 185.712L1977.1 213.565L1949.3 226.759L1928.46 235.555L1907.61 241.419L1890.94 242.885H1875.65L1861.76 239.953L1845.08 234.089L1828.4 226.759L1804.78 213.565L1783.94 198.906L1753.36 175.45L1695 122.675L1660.26 91.8901L1625.51 62.5707L1601.89 44.9791L1574.1 27.3874L1533.8 12.7277L1506 8.32984L1482.38 6.86387L1457.36 8.32984L1417.06 18.5916L1382.32 31.7853L1351.75 46.445L1310.06 69.9005L1260.03 100.686L1187.77 144.665L1153.03 163.723L1111.34 185.712L1061.31 207.702L1011.28 222.361L962.645 228.225L932.073 225.293L901.5 220.895L866.759 210.634L820.9 193.042L751.417 159.325L691.661 130.005L634.685 106.55L581.878 93.356L541.578 86.0262L505.447 83.0942H491.55L449.86 81.6283L378.988 80.1623L315.063 77.2304L271.984 71.3665L220.566 62.5707L180.266 52.3089L155.252 46.445L102.445 33.2513L66.3141 21.5236Z" fill="#FF0F0F" stroke="#FC0404"/>
</svg>
