<svg width="2502" height="3503" viewBox="0 0 2502 3503" fill="none" xmlns="http://www.w3.org/2000/svg">
<path d="M66.3141 26.6545L1 1V3050.21L27.4036 3046.55L89.9383 3041.05L167.759 3028.23L219.177 3015.4L291.439 2986.08L337.298 2960.42L385.936 2929.27L420.678 2905.45L455.419 2883.46L488.771 2863.3L519.344 2844.98L574.93 2826.65L602.723 2822.99H629.127L662.479 2830.32L693.051 2843.15L751.417 2877.96L802.834 2912.78L850.083 2945.76L911.228 2978.75L943.19 2987.91L986.27 2993.41L1015.45 2991.58L1044.64 2986.08L1100.22 2975.08L1157.2 2965.92L1190.55 2962.26H1211.39L1237.8 2965.92L1268.37 2975.08L1304.5 2991.58L1371.21 3033.72L1428.18 3074.04L1471.26 3099.69L1511.56 3114.35L1564.37 3123.51L1604.67 3108.85L1639.41 3088.7L1683.88 3059.38L1758.92 2991.58L1808.95 2947.6L1850.64 2921.94L1903.45 2899.95L1939.58 2892.62L2002.11 2905.45L2063.26 2934.77L2116.06 2976.92L2173.04 3028.23L2289.77 3178.49L2378.71 3304.93L2428.74 3387.39L2501 3501V74.2984L2475.99 65.1361L2449.58 55.9738L2423.18 46.8115L2395.39 39.4817L2370.37 33.9843L2327.29 30.3194L2295.33 33.9843L2261.98 39.4817L2230.02 50.4764L2207.78 61.4712L2193.89 70.6335L2175.82 83.4607L2139.69 112.78L2102.17 149.429L2053.53 197.073L2018.79 231.89L1977.1 266.707L1949.3 283.199L1928.46 294.194L1907.61 301.524L1890.94 303.356H1875.65L1861.76 299.691L1845.08 292.361L1828.4 283.199L1804.78 266.707L1783.94 248.382L1753.36 219.063L1695 153.094L1660.26 114.613L1625.51 77.9633L1601.89 55.9738L1574.1 33.9843L1533.8 15.6597L1506 10.1623L1482.38 8.32984L1457.36 10.1623L1417.06 22.9895L1382.32 39.4817L1351.75 57.8063L1310.06 87.1257L1260.03 125.607L1187.77 180.581L1153.03 204.403L1111.34 231.89L1061.31 259.377L1011.28 277.702L962.645 285.031L932.073 281.366L901.5 275.869L866.759 263.042L820.9 241.052L751.417 198.906L691.661 162.257L634.685 132.937L581.878 116.445L541.578 107.283L505.447 103.618H491.55L449.86 101.785L378.988 99.9529L315.063 96.288L271.984 88.9581L220.566 77.9633L180.266 65.1361L155.252 57.8063L102.445 41.3141L66.3141 26.6545Z" fill="#FF0F0F" stroke="#FC0404"/>
</svg>
