<svg width="2502" height="1202" viewBox="0 0 2502 1202" fill="none" xmlns="http://www.w3.org/2000/svg">
<path d="M66.3141 9.79581L1 1V1046.44L27.4036 1045.19L89.9383 1043.3L167.759 1038.91L219.177 1034.51L291.439 1024.46L337.298 1015.66L385.936 1004.98L420.678 996.812L455.419 989.272L488.771 982.361L519.344 976.078L574.93 969.796L602.723 968.539H629.127L662.479 971.052L693.051 975.45L751.417 987.387L802.834 999.325L850.083 1010.63L911.228 1021.94L943.19 1025.08L986.27 1026.97L1015.45 1026.34L1044.64 1024.46L1100.22 1020.69L1157.2 1017.54L1190.55 1016.29H1211.39L1237.8 1017.54L1268.37 1020.69L1304.5 1026.34L1371.21 1040.79L1428.18 1054.61L1471.26 1063.41L1511.56 1068.43L1564.37 1071.58L1604.67 1066.55L1639.41 1059.64L1683.88 1049.59L1758.92 1026.34L1808.95 1011.26L1850.64 1002.47L1903.45 994.927L1939.58 992.414L2002.11 996.812L2063.26 1006.86L2116.06 1021.31L2173.04 1038.91L2289.77 1090.42L2378.71 1133.77L2428.74 1162.05L2501 1201V26.1309L2475.99 22.9895L2449.58 19.8482L2423.18 16.7068L2395.39 14.1937L2370.37 12.3089L2327.29 11.0524L2295.33 12.3089L2261.98 14.1937L2230.02 17.9634L2207.78 21.733L2193.89 24.8743L2175.82 29.2723L2139.69 39.3246L2102.17 51.8901L2053.53 68.2251L2018.79 80.1623L1977.1 92.0995L1949.3 97.7539L1928.46 101.524L1907.61 104.037L1890.94 104.665H1875.65L1861.76 103.408L1845.08 100.895L1828.4 97.7539L1804.78 92.0995L1783.94 85.8167L1753.36 75.7644L1695 53.1466L1660.26 39.9529L1625.51 27.3874L1601.89 19.8482L1574.1 12.3089L1533.8 6.02618L1506 4.14136L1482.38 3.51309L1457.36 4.14136L1417.06 8.53927L1382.32 14.1937L1351.75 20.4764L1310.06 30.5288L1260.03 43.7225L1187.77 62.5707L1153.03 70.7382L1111.34 80.1623L1061.31 89.5864L1011.28 95.8691L962.645 98.3822L932.073 97.1256L901.5 95.2408L866.759 90.8429L820.9 83.3037L751.417 68.8534L691.661 56.288L634.685 46.2356L581.878 40.5812L541.578 37.4398L505.447 36.1832H491.55L449.86 35.555L378.988 34.9267L315.063 33.6702L271.984 31.1571L220.566 27.3874L180.266 22.9895L155.252 20.4764L102.445 14.822L66.3141 9.79581Z" fill="#FF0F0F" stroke="#FC0404"/>
</svg>
